# xmcd
#
# Track frame offsets: 
#        150
#        15726
#        34116
#        55321
#        69845
#        87089
#        108077
#        124116
#        138331
#        153633
#
# Disc length: 2341 seconds
#
# Revision: 0
# Processed by: cddbd v1.5.2PL0 Copyright (c) Steve Scherf et al.
# Submitted via: ExactAudioCopy v0.95b4
#
DISCID=7a09230a
DTITLE=The Long Haul - Beautiful Lies
DYEAR=2011
DGENRE=Country
TTITLE0=Continental
TTITLE1=Psychic Baby
TTITLE2=Waiting And Wishing
TTITLE3=Crawl
TTITLE4=Rhythm Trail
TTITLE5=Beautiful Lies
TTITLE6=Blind
TTITLE7=Leading Light
TTITLE8=Existensial Boogie
TTITLE9=Youre Still Here
EXTD=
EXTT0=
EXTT1=
EXTT2=
EXTT3=
EXTT4=
EXTT5=
EXTT6=
EXTT7=
EXTT8=
EXTT9=
PLAYORDER=
